<svg xmlns="http://www.w3.org/2000/svg" xmlns:xlink="http://www.w3.org/1999/xlink">
    <symbol id="logo" viewBox="0 0 512.056 512.056"><g><g><g><path d="M426.635,188.224C402.969,93.946,307.358,36.704,213.08,60.37C139.404,78.865,85.907,142.542,80.395,218.303C28.082,226.93-7.333,276.331,1.294,328.644c7.669,46.507,47.967,80.566,95.101,80.379h80v-32h-80c-35.346,0-64-28.654-64-64c0-35.346,28.654-64,64-64c8.837,0,16-7.163,16-16c-0.08-79.529,64.327-144.065,143.856-144.144c68.844-0.069,128.107,48.601,141.424,116.144c1.315,6.744,6.788,11.896,13.6,12.8c43.742,6.229,74.151,46.738,67.923,90.479c-5.593,39.278-39.129,68.523-78.803,68.721h-64v32h64c61.856-0.187,111.848-50.483,111.66-112.339C511.899,245.194,476.655,200.443,426.635,188.224z"/><path d="M245.035,253.664l-64,64l22.56,22.56l36.8-36.64v153.4h32v-153.44l36.64,36.64l22.56-22.56l-64-64C261.354,247.46,251.276,247.46,245.035,253.664z"/></g></g></g></symbol>
    <symbol id="sign-in" viewBox="0 0 512 512"><path d="m403.777344 147.917969c0-81.5625-66.359375-147.917969-147.917969-147.917969-81.5625 0-147.917969 66.355469-147.917969 147.917969 0 50.519531 25.464844 95.199219 64.222656 121.894531-36.1875 12.488281-69.359374 33.117188-97.226562 60.984375-48.324219 48.324219-74.9375 112.578125-74.9375 180.917969h39.976562c0-119.035156 96.84375-215.878906 215.882813-215.878906 81.558594 0 147.917969-66.355469 147.917969-147.917969zm-147.917969 107.941406c-59.519531 0-107.941406-48.421875-107.941406-107.941406s48.421875-107.941407 107.941406-107.941407c59.515625 0 107.9375 48.421876 107.9375 107.941407s-48.421875 107.941406-107.9375 107.941406zm256.140625 111.9375-94.089844 94.089844-28.269531-28.269531 46.832031-46.832032h-34.671875c-47.898437 0-86.902343 38.972656-86.941406 86.871094l-.035156 38.074219-39.976563-.03125.03125-38.078125c.058594-69.925782 56.996094-126.816406 126.921875-126.816406h32.671875l-44.832031-44.832032 28.269531-28.265625zm0 0"/></symbol>
    <symbol id="sign-up" viewBox="0 0 512 512"><g><g><path d="M255.501,0.499c-81.448,0-147.711,66.264-147.711,147.711c0,50.449,25.429,95.065,64.137,121.724c-36.139,12.471-69.263,33.071-97.091,60.899C26.577,379.093,0,443.254,0,511.501h39.922c0-118.871,96.708-215.579,215.579-215.579c81.448,0,147.711-66.264,147.711-147.712S336.949,0.499,255.501,0.499z M255.501,256c-59.435,0-107.789-48.354-107.789-107.789S196.066,40.421,255.501,40.421S363.29,88.775,363.29,148.211S314.936,256,255.501,256z"/></g></g><g><g><polygon points="428.164,387.743 428.164,303.906 388.242,303.906 388.242,387.743 304.405,387.743 304.405,427.665 388.242,427.665 388.242,511.501 428.164,511.501 428.164,427.665 512,427.665 512,387.743"/></g></g></symbol>
    <symbol id="go-back" viewBox="0 0 447.243 447.243"><g><g><path d="M420.361,192.229c-1.83-0.297-3.682-0.434-5.535-0.41H99.305l6.88-3.2c6.725-3.183,12.843-7.515,18.08-12.8l88.48-88.48c11.653-11.124,13.611-29.019,4.64-42.4c-10.441-14.259-30.464-17.355-44.724-6.914c-1.152,0.844-2.247,1.764-3.276,2.754l-160,160C-3.119,213.269-3.13,233.53,9.36,246.034c0.008,0.008,0.017,0.017,0.025,0.025l160,160c12.514,12.479,32.775,12.451,45.255-0.063c0.982-0.985,1.899-2.033,2.745-3.137c8.971-13.381,7.013-31.276-4.64-42.4l-88.32-88.64c-4.695-4.7-10.093-8.641-16-11.68l-9.6-4.32h314.24c16.347,0.607,30.689-10.812,33.76-26.88C449.654,211.494,437.806,195.059,420.361,192.229z"/></g></g></symbol>
    <symbol id="plus-folder" viewBox="0 0 512 512"><path d="m458 96h-202v-26c0-29.775-24.224-54-54-54h-148c-29.776 0-54 24.225-54 54v50 322c0 29.775 24.224 54 54 54h404c29.776 0 54-24.225 54-54v-292c0-29.775-24.224-54-54-54zm-250 0h-160v-26c0-3.309 2.691-6 6-6h148c3.309 0 6 2.691 6 6zm248 320h-24v24c0 13.255-10.745 24-24 24s-24-10.745-24-24v-24h-24c-13.255 0-24-10.745-24-24s10.745-24 24-24h24v-24c0-13.255 10.745-24 24-24s24 10.745 24 24v24h24c13.255 0 24 10.745 24 24s-10.745 24-24 24z"/></symbol>
    <symbol id="log-out" viewBox="0 0 512.016 512"><path d="m496 240.007812h-202.667969c-8.832031 0-16-7.167968-16-16 0-8.832031 7.167969-16 16-16h202.667969c8.832031 0 16 7.167969 16 16 0 8.832032-7.167969 16-16 16zm0 0"/><path d="m416 320.007812c-4.097656 0-8.191406-1.558593-11.308594-4.691406-6.25-6.253906-6.25-16.386718 0-22.636718l68.695313-68.691407-68.695313-68.695312c-6.25-6.25-6.25-16.382813 0-22.632813 6.253906-6.253906 16.386719-6.253906 22.636719 0l80 80c6.25 6.25 6.25 16.382813 0 22.632813l-80 80c-3.136719 3.15625-7.230469 4.714843-11.328125 4.714843zm0 0"/><path d="m170.667969 512.007812c-4.566407 0-8.898438-.640624-13.226563-1.984374l-128.386718-42.773438c-17.46875-6.101562-29.054688-22.378906-29.054688-40.574219v-384c0-23.53125 19.136719-42.6679685 42.667969-42.6679685 4.5625 0 8.894531.6406255 13.226562 1.9843755l128.382813 42.773437c17.472656 6.101563 29.054687 22.378906 29.054687 40.574219v384c0 23.53125-19.132812 42.667968-42.664062 42.667968zm-128-480c-5.867188 0-10.667969 4.800782-10.667969 10.667969v384c0 4.542969 3.050781 8.765625 7.402344 10.28125l127.785156 42.582031c.917969.296876 2.113281.46875 3.480469.46875 5.867187 0 10.664062-4.800781 10.664062-10.667968v-384c0-4.542969-3.050781-8.765625-7.402343-10.28125l-127.785157-42.582032c-.917969-.296874-2.113281-.46875-3.476562-.46875zm0 0"/><path d="m325.332031 170.675781c-8.832031 0-16-7.167969-16-16v-96c0-14.699219-11.964843-26.667969-26.664062-26.667969h-240c-8.832031 0-16-7.167968-16-16 0-8.832031 7.167969-15.9999995 16-15.9999995h240c32.363281 0 58.664062 26.3046875 58.664062 58.6679685v96c0 8.832031-7.167969 16-16 16zm0 0"/><path d="m282.667969 448.007812h-85.335938c-8.832031 0-16-7.167968-16-16 0-8.832031 7.167969-16 16-16h85.335938c14.699219 0 26.664062-11.96875 26.664062-26.667968v-96c0-8.832032 7.167969-16 16-16s16 7.167968 16 16v96c0 32.363281-26.300781 58.667968-58.664062 58.667968zm0 0"/></symbol>
    <symbol id="file-icon" viewBox="0 0 477.867 477.867"><g><g><path d="M324.267,119.467c-9.426,0-17.067-7.641-17.067-17.067V0H102.4C74.123,0,51.2,22.923,51.2,51.2v375.467c0,28.277,22.923,51.2,51.2,51.2h273.067c28.277,0,51.2-22.923,51.2-51.2v-307.2H324.267z"/></g></g><g><g><polygon points="341.333,10.001 341.333,85.333 416.666,85.333"/></g></g></symbol>
    <symbol id="folder-icon" viewBox="0 0 408 408"><g><g><path d="M372,88.661H206.32l-33-39.24c-0.985-1.184-2.461-1.848-4-1.8H36c-19.956,0.198-36.023,16.443-36,36.4v240c-0.001,19.941,16.06,36.163,36,36.36h336c19.94-0.197,36.001-16.419,36-36.36v-199C408.001,105.08,391.94,88.859,372,88.661z"/></g></g></symbol>
    <symbol id="upload-file" viewBox="0 0 489.4 489.4"><g><g><path d="M382.4,422.75h-79.1H282h-4.6v-106.1h34.7c8.8,0,14-10,8.8-17.2l-67.5-93.4c-4.3-6-13.2-6-17.5,0l-67.5,93.4c-5.2,7.2-0.1,17.2,8.8,17.2h34.7v106.1h-4.6H186H94.3c-52.5-2.9-94.3-52-94.3-105.2c0-36.7,19.9-68.7,49.4-86c-2.7-7.3-4.1-15.1-4.1-23.3c0-37.5,30.3-67.8,67.8-67.8c8.1,0,15.9,1.4,23.2,4.1c21.7-46,68.5-77.9,122.9-77.9c70.4,0.1,128.4,54,135,122.7c54.1,9.3,95.2,59.4,95.2,116.1C489.4,366.05,442.2,418.55,382.4,422.75z"/></g></g></symbol>
    <symbol id="download-file" viewBox="0 0 512 512"><g id="Solid"><path d="m239.029 384.97a24 24 0 0 0 33.942 0l90.509-90.509a24 24 0 0 0 0-33.941 24 24 0 0 0 -33.941 0l-49.539 49.539v-262.059a24 24 0 0 0 -48 0v262.059l-49.539-49.539a24 24 0 0 0 -33.941 0 24 24 0 0 0 0 33.941z"/><path d="m464 232a24 24 0 0 0 -24 24v184h-368v-184a24 24 0 0 0 -48 0v192a40 40 0 0 0 40 40h384a40 40 0 0 0 40-40v-192a24 24 0 0 0 -24-24z"/></g></symbol>
    <symbol id="delete-file" viewBox="0 0 512 512"><g><path d="m424 64h-88v-16c0-26.467-21.533-48-48-48h-64c-26.467 0-48 21.533-48 48v16h-88c-22.056 0-40 17.944-40 40v56c0 8.836 7.164 16 16 16h8.744l13.823 290.283c1.221 25.636 22.281 45.717 47.945 45.717h242.976c25.665 0 46.725-20.081 47.945-45.717l13.823-290.283h8.744c8.836 0 16-7.164 16-16v-56c0-22.056-17.944-40-40-40zm-216-16c0-8.822 7.178-16 16-16h64c8.822 0 16 7.178 16 16v16h-96zm-128 56c0-4.411 3.589-8 8-8h336c4.411 0 8 3.589 8 8v40c-4.931 0-331.567 0-352 0zm313.469 360.761c-.407 8.545-7.427 15.239-15.981 15.239h-242.976c-8.555 0-15.575-6.694-15.981-15.239l-13.751-288.761h302.44z"/><path d="m256 448c8.836 0 16-7.164 16-16v-208c0-8.836-7.164-16-16-16s-16 7.164-16 16v208c0 8.836 7.163 16 16 16z"/><path d="m336 448c8.836 0 16-7.164 16-16v-208c0-8.836-7.164-16-16-16s-16 7.164-16 16v208c0 8.836 7.163 16 16 16z"/><path d="m176 448c8.836 0 16-7.164 16-16v-208c0-8.836-7.164-16-16-16s-16 7.164-16 16v208c0 8.836 7.163 16 16 16z"/></g></symbol>
    <symbol id="user-default-icon" viewBox="0 0 512 512"><g><g><circle cx="256" cy="114.526" r="114.526"/></g></g><g><g><path d="M256,256c-111.619,0-202.105,90.487-202.105,202.105c0,29.765,24.13,53.895,53.895,53.895h296.421c29.765,0,53.895-24.13,53.895-53.895C458.105,346.487,367.619,256,256,256z"/></g></g></symbol>
</svg>